<svg width="21" height="22" viewBox="0 0 21 22" fill="none" xmlns="http://www.w3.org/2000/svg">
<path d="M15 9.5C13.8133 9.5 12.6533 9.85189 11.6666 10.5112C10.6799 11.1705 9.91085 12.1075 9.45673 13.2039C9.0026 14.3003 8.88378 15.5067 9.11529 16.6705C9.3468 17.8344 9.91825 18.9035 10.7574 19.7426C11.5965 20.5818 12.6656 21.1532 13.8295 21.3847C14.9933 21.6162 16.1997 21.4974 17.2961 21.0433C18.3925 20.5892 19.3295 19.8201 19.9888 18.8334C20.6481 17.8467 21 16.6867 21 15.5C20.998 13.9093 20.3652 12.3843 19.2405 11.2596C18.1157 10.1348 16.5907 9.50198 15 9.5ZM19.4325 14.75H17.967C17.8696 13.6192 17.5597 12.5169 17.0535 11.501C17.6748 11.8211 18.2131 12.2812 18.626 12.8451C19.0389 13.4089 19.315 14.0611 19.4325 14.75ZM13.542 14.75C13.6799 13.3946 14.1839 12.1022 15 11.0112C15.8165 12.1021 16.3207 13.3945 16.4588 14.75H13.542ZM16.4595 16.25C16.3213 17.6056 15.8168 18.898 15 19.9888C14.1836 18.8979 13.6793 17.6055 13.5413 16.25H16.4595ZM12.9465 11.501C12.4403 12.5169 12.1304 13.6192 12.033 14.75H10.5675C10.685 14.0611 10.9611 13.4089 11.374 12.8451C11.7869 12.2812 12.3252 11.8211 12.9465 11.501ZM10.5675 16.25H12.0323C12.1296 17.3808 12.4396 18.4831 12.9458 19.499C12.3246 19.1789 11.7864 18.7187 11.3737 18.1548C10.9609 17.5909 10.685 16.9388 10.5675 16.25ZM17.0535 19.499C17.5598 18.4831 17.8697 17.3808 17.967 16.25H19.4325C19.315 16.9389 19.0389 17.5911 18.6261 18.155C18.2132 18.7189 17.6748 19.179 17.0535 19.499Z" fill="#919EAB"/>
<path d="M3 9.5H7.5V11H3V9.5Z" fill="#919EAB"/>
<path d="M3 3.5H12V5H3V3.5Z" fill="#919EAB"/>
<path d="M3 6.5H12V8H3V6.5Z" fill="#919EAB"/>
<path d="M3 17H7.5V18.5H3V17Z" fill="#919EAB"/>
<path d="M7.5 21.5H1.5C1.1023 21.4996 0.720997 21.3414 0.439778 21.0602C0.15856 20.779 0.000397108 20.3977 0 20V2C0.000397108 1.6023 0.15856 1.221 0.439778 0.939778C0.720997 0.65856 1.1023 0.500397 1.5 0.5H13.5C13.8977 0.500397 14.279 0.65856 14.5602 0.939778C14.8414 1.221 14.9996 1.6023 15 2V8H13.5V2H1.5V20H7.5V21.5Z" fill="#919EAB"/>
</svg>
