<svg width="7" height="12" viewBox="0 0 7 12" fill="none" xmlns="http://www.w3.org/2000/svg">
<path d="M1.33383 11.8334C1.13912 11.8337 0.950419 11.7659 0.800493 11.6417C0.63007 11.5004 0.52287 11.2971 0.502545 11.0767C0.482221 10.8562 0.550444 10.6368 0.692159 10.4667L4.42549 6.00003L0.825493 1.52504C0.685684 1.35287 0.620269 1.13208 0.64373 0.91155C0.667191 0.691015 0.777593 0.48893 0.950493 0.350035C1.1248 0.196669 1.35518 0.122973 1.58614 0.146701C1.81709 0.170429 2.02768 0.289431 2.16716 0.475035L6.19216 5.47503C6.44492 5.78254 6.44492 6.22587 6.19216 6.53337L2.02549 11.5334C1.85594 11.7379 1.59902 11.8493 1.33383 11.8334Z" fill="#212B36"/>
</svg>
