<svg width="64" height="64" viewBox="0 0 64 64" fill="none" xmlns="http://www.w3.org/2000/svg">
<g clip-path="url(#clip0_18477_10025)">
<path d="M24.393 14.589C24.5402 14.7325 24.6075 14.9394 24.5727 15.1421L23.7375 20.0116C23.383 21.8787 25.468 23.6511 27.3647 22.6469L31.7377 20.3477C31.9198 20.2521 32.1372 20.2519 32.3193 20.3477L36.6924 22.6469C38.3643 23.6 40.6916 22.0521 40.3197 20.0116L39.4844 15.1421C39.4497 14.9394 39.5168 14.7326 39.6642 14.589L43.2021 11.1403C43.8884 10.4711 44.1308 9.48925 43.8347 8.57763C43.5384 7.666 42.7652 7.014 41.8166 6.87625L36.9271 6.16575C36.7237 6.13625 36.5478 6.00837 36.4567 5.824L34.2703 1.3935C33.8461 0.534 32.9871 0 32.0286 0C31.0701 0 30.2111 0.534 29.7868 1.3935L27.6003 5.82387C27.5092 6.0085 27.3333 6.13625 27.1297 6.16575L22.2403 6.87625C20.311 7.09212 19.3626 9.7085 20.855 11.1404L24.393 14.589ZM22.0056 9.15713C22.0417 9.046 22.1631 8.78212 22.5101 8.73175L27.3992 8.02125C28.2136 7.90312 28.9173 7.392 29.2817 6.65387L31.4682 2.2235C31.6233 1.909 31.9117 1.87513 32.0286 1.87513C32.1455 1.87513 32.4338 1.909 32.589 2.2235L34.7756 6.654C35.1399 7.392 35.8436 7.90312 36.6578 8.02125L41.5471 8.73175C41.8941 8.78212 42.0156 9.04613 42.0516 9.15713C42.0876 9.26813 42.1446 9.553 41.8934 9.79762L38.3556 13.2463C37.7663 13.8206 37.4974 14.6479 37.6366 15.459L38.4718 20.3285C38.5311 20.6741 38.3177 20.8711 38.2232 20.9398C38.1287 21.0084 37.8756 21.1504 37.5651 20.9872L33.1919 18.6881C32.4636 18.3053 31.5938 18.3053 30.8653 18.6881L26.4922 20.9872C26.1818 21.1507 25.9286 21.0084 25.8341 20.9398C25.7396 20.8711 25.5262 20.6741 25.5855 20.3285L26.4207 15.459C26.5598 14.6479 26.291 13.8206 25.7017 13.2463L22.1638 9.79775C21.9127 9.553 21.9696 9.26825 22.0056 9.15713Z" fill="#FA541C"/>
<path d="M42.7871 17.3744C42.5437 18.1231 42.7428 18.9299 43.3067 19.4796L45.8339 21.943C45.8761 21.9841 45.8953 22.0432 45.8854 22.1012L45.2888 25.5799C44.9789 27.115 46.7309 28.5401 48.2686 27.7446L51.3924 26.1022C51.4446 26.0749 51.5068 26.0749 51.5588 26.1022L54.6827 27.7446C55.9224 28.5094 58.0116 27.3001 57.6624 25.5799L57.0658 22.1012C57.0558 22.0432 57.0752 21.984 57.1172 21.9431L59.6447 19.4795C60.7843 18.4467 60.2177 16.2077 58.5064 15.9767L55.0138 15.4692C54.9557 15.4609 54.9053 15.4242 54.8793 15.3715L53.3173 12.2067C52.6467 10.7915 50.4899 10.647 49.6342 12.2066L48.0723 15.3714C48.0463 15.4242 47.9959 15.4609 47.9378 15.4692L44.4451 15.9767C43.6656 16.09 43.0303 16.6255 42.7871 17.3744ZM44.5703 17.9537C44.5931 17.8836 44.6416 17.8427 44.7144 17.8321L48.2072 17.3246C48.8761 17.2274 49.4541 16.8074 49.7534 16.2012L51.3154 13.0364C51.3481 12.9704 51.4019 12.9367 51.4756 12.9367C51.5492 12.9367 51.6031 12.9702 51.6357 13.0362L53.1978 16.2014C53.4971 16.8075 54.0751 17.2274 54.7441 17.3246L58.2367 17.8321C58.3096 17.8427 58.3582 17.8836 58.3809 17.9537C58.4037 18.0239 58.3886 18.0855 58.3358 18.1369L55.8082 20.6006C55.3242 21.0725 55.1036 21.752 55.2177 22.4181L55.8143 25.8969C55.8268 25.9694 55.8029 26.0282 55.7433 26.0714C55.6837 26.1147 55.6204 26.1192 55.5552 26.0849L52.4311 24.4425C51.8328 24.128 51.1184 24.128 50.5199 24.4425L47.3959 26.0849C47.3307 26.119 47.2674 26.1146 47.2078 26.0714C47.1482 26.0281 47.1243 25.9694 47.1368 25.8967L47.7334 22.4181C47.8477 21.7519 47.6268 21.0724 47.1428 20.6004L44.6156 18.137C44.5627 18.0854 44.5474 18.0237 44.5703 17.9537Z" fill="#FA541C"/>
<path d="M6.81481 21.9441C6.85694 21.9852 6.87619 22.0443 6.86631 22.1023L6.26969 25.581C6.00981 27.0918 7.61806 28.5717 9.24944 27.7457L12.3733 26.1033C12.4254 26.076 12.4877 26.076 12.5397 26.1033L15.6637 27.7457C16.9981 28.5103 18.9524 27.2798 18.6434 25.581L18.0468 22.1022C18.0368 22.0443 18.0561 21.9852 18.0982 21.9442L20.6253 19.4806C21.7649 18.4478 21.1983 16.2088 19.4871 15.9778L15.9946 15.4703C15.9363 15.462 15.8859 15.4253 15.8599 15.3726L14.2979 12.2077C13.6531 10.783 11.3671 10.6628 10.6148 12.2077L9.05281 15.3725C9.02681 15.4253 8.97644 15.462 8.91831 15.4703L5.42556 15.9778C3.86981 16.1576 3.05569 18.2642 4.28744 19.4807L6.81481 21.9441ZM5.55106 17.9548C5.57381 17.8847 5.62231 17.8438 5.69519 17.8332L9.18794 17.3257C9.85681 17.2285 10.4348 16.8085 10.7342 16.2023L12.2962 13.0373C12.3288 12.9713 12.3827 12.9378 12.4563 12.9378C12.5299 12.9378 12.5839 12.9713 12.6164 13.0375L14.1784 16.2025C14.4777 16.8086 15.0557 17.2285 15.7247 17.3257L19.2173 17.8332C19.2902 17.8438 19.3388 17.8847 19.3616 17.9548C19.3843 18.025 19.3692 18.0866 19.3164 18.138L16.7889 20.6016C16.3048 21.0735 16.0841 21.7531 16.1984 22.4192L16.7951 25.8978C16.8076 25.9705 16.7836 26.0293 16.7241 26.0725C16.6646 26.1158 16.6012 26.1203 16.5359 26.086L13.4119 24.4436C12.8136 24.1291 12.0992 24.1291 11.5007 24.4436L8.37669 26.086C8.31156 26.1203 8.24819 26.1157 8.18869 26.0725C8.12919 26.0292 8.10519 25.9705 8.11769 25.8978L8.71431 22.4193C8.82869 21.7531 8.60781 21.0735 8.12369 20.6015L5.59644 18.1381C5.54356 18.0865 5.52831 18.0248 5.55106 17.9548Z" fill="#FA541C"/>
<path d="M29.953 15.2002C30.3778 15.4732 30.7217 15.6147 31.0911 15.6852V15.9771C31.0911 16.4905 31.4866 16.9381 31.9997 16.9535C32.5306 16.9695 32.9661 16.5439 32.9661 16.0164V15.5527C33.7718 15.2217 34.38 14.497 34.5317 13.593C34.7286 12.4206 34.0939 11.3621 32.9525 10.9591C32.7627 10.882 32.4875 10.8326 31.8863 10.607C31.721 10.526 31.6253 10.3429 31.6656 10.1631C31.685 10.0882 31.7381 9.94035 31.9433 9.80035C32.2247 9.65648 32.5736 9.95123 32.5888 9.96385C33.0097 10.3114 33.6429 10.2296 33.9592 9.77048C34.2463 9.35373 34.1247 8.7841 33.7259 8.47248C33.5096 8.30335 33.251 8.15323 32.9661 8.04623V7.77698C32.9661 7.2636 32.5706 6.81598 32.0575 6.8006C31.5266 6.7846 31.0911 7.21023 31.0911 7.73773V8.1241C31.0863 8.12648 31.0816 8.12823 31.0768 8.1306C30.4301 8.46123 29.974 9.0706 29.8255 9.80273C29.6875 10.483 29.8448 11.1749 30.2463 11.6532C30.8198 12.3027 31.4847 12.4681 32.3283 12.7271C32.4328 12.764 32.7508 12.8762 32.6827 13.2822C32.6461 13.5005 32.4578 13.8705 31.9848 13.8736C31.4436 13.877 31.3287 13.8594 30.9408 13.606C30.477 13.3031 29.8442 13.4636 29.5882 13.9741C29.3705 14.4082 29.5443 14.9377 29.953 15.2002Z" fill="#FA541C"/>
<path d="M59.7848 55.0978L55.0633 53.1523V51.3258C56.6435 49.7659 57.969 47.1059 58.1985 44.9062C59.8006 40.7872 58.0658 37.3097 56.2907 35.6909C56.7888 32.8922 54.4356 30.0696 51.5418 30.1256C48.6651 30.1333 46.328 32.7278 46.7903 35.6751C45.7386 36.5898 44.8795 37.9849 44.4421 39.5173C43.8821 41.4793 44.0561 43.4901 44.9261 45.2021C45.2522 47.3504 46.4586 49.7388 48.0225 51.3218V53.1524L44.2865 54.6919C43.8511 54.1529 43.2977 53.7057 42.6516 53.4002C42.1836 53.1789 41.6247 53.3788 41.4033 53.8468C41.182 54.3149 41.382 54.8738 41.85 55.0952C42.829 55.5582 43.4616 56.5574 43.4616 57.6409V62.1252H32.9651V57.4012C33.935 57.3677 34.7135 56.5684 34.7135 55.5907V53.0548C34.9928 52.8881 35.2566 52.6937 35.5026 52.4758L37.8497 53.4431C38.1927 53.5737 38.7896 53.5123 39.0737 52.9334C39.2711 52.4547 39.0428 51.9067 38.5641 51.7094L36.2196 50.7433V47.1886C38.4171 45.3697 39.7205 42.4147 40.1272 39.2348C41.2233 37.3892 43.0313 32.5447 39.8508 29.3243C38.5397 27.9969 36.6835 27.7378 35.1718 28.0506C33.9527 25.3789 29.933 25.0581 26.5331 27.0461C26.0876 27.3098 25.9403 27.8849 26.2042 28.3304C26.468 28.7758 27.0432 28.9232 27.4886 28.6593C30.1763 27.1886 32.9963 27.2169 33.558 29.1287L32.3566 32.3346C31.6931 33.0714 30.8548 33.6406 29.9191 33.9811C27.5987 34.8256 26.0306 36.1732 25.1061 37.1847C24.639 35.6508 24.3905 33.3552 25.0918 31.4463C25.2703 30.9602 25.0212 30.4216 24.5351 30.2429C24.0493 30.0646 23.5105 30.3137 23.3318 30.7996C22.2433 33.7623 22.9535 37.4646 23.9298 39.2422C24.3602 42.4089 25.5173 45.2121 27.8378 47.1901V50.7434L21.6251 53.3033C20.873 53.6132 20.2356 54.1017 19.7503 54.7067L15.9786 53.1524V51.1089C17.754 49.1703 19.2155 45.6092 19.1701 43.2204C19.1701 38.8651 16.6606 36.2648 12.4572 36.2648C10.7925 36.2648 9.38534 36.6714 8.27534 37.4732C7.85559 37.7764 7.76109 38.3624 8.06434 38.7822C8.36759 39.2019 8.95359 39.2964 9.37322 38.9932C10.1571 38.4269 11.1947 38.1398 12.4572 38.1398C16.4557 38.1398 17.2951 40.9027 17.2951 43.2204C17.4381 45.6112 14.8797 50.9874 12.4572 51.2277C9.60834 50.6928 7.14222 44.9872 7.68559 42.1573C7.75284 41.6439 7.39122 41.1732 6.87784 41.1059C6.36459 41.0401 5.89384 41.4003 5.82647 41.9137C5.39034 44.8803 6.73134 48.5484 8.93759 51.1099V53.1522L4.21609 55.0977C2.68722 55.7276 1.69922 57.2032 1.69922 58.8568V61.8112C1.69922 63.0181 2.68109 64.0001 3.88797 64.0001H60.113C61.3198 64.0001 62.3017 63.0182 62.3017 61.8112V58.8568C62.3016 57.2033 61.3137 55.7277 59.7848 55.0978ZM38.5167 30.6418C40.4283 32.5773 39.7615 35.5303 39.0061 37.2969C38.3221 36.6071 37.3002 35.6848 36.0472 34.8828C35.1983 34.3393 34.5313 33.6008 34.1762 32.8216L35.2465 29.9657C36.1486 29.7062 37.5816 29.6951 38.5167 30.6418ZM25.825 39.2713C26.2581 38.6482 27.7492 36.7659 30.5601 35.7429C31.4172 35.4309 32.2128 34.9728 32.9113 34.3956C33.432 35.1886 34.1571 35.8989 35.0363 36.4618C36.578 37.4487 37.749 38.6691 38.2376 39.2168C37.7211 42.9198 35.5846 46.8234 32.0275 46.8234C28.4898 46.8234 26.3541 42.9536 25.825 39.2713ZM32.0275 48.6984C32.837 48.6984 33.6123 48.5547 34.3445 48.2764V50.9967C33.183 52.1596 30.9971 52.2374 29.7127 50.9974V48.2773C30.4442 48.5551 31.2188 48.6984 32.0275 48.6984ZM18.7208 62.1252H16.8478L18.7207 59.4624L18.7208 62.1252ZM8.93747 60.1004L6.25434 56.2859L8.93747 55.1804V60.1004ZM10.8125 56.8253C11.7251 57.2093 12.997 57.2753 14.1035 56.8252V62.1252H10.8125V56.8253ZM15.9785 55.1803L18.6626 56.2863L15.9785 60.1024V55.1803ZM14.1035 52.6522V54.6493C13.2855 55.4083 11.7792 55.5063 10.8125 54.6487C10.8125 54.1712 10.8125 53.1634 10.8125 52.6528C11.8002 53.1667 12.9042 53.3008 14.1035 52.6522ZM3.57409 61.8113V58.8569C3.57409 58.1292 3.92934 57.4658 4.50822 57.0622L8.06934 62.1252H3.88784C3.71484 62.1252 3.57409 61.9844 3.57409 61.8113ZM20.5958 57.6408C20.5958 56.4953 21.2802 55.4731 22.3392 55.0368L28.5546 52.4758C29.6983 53.4381 31.1745 53.9848 32.8383 53.7313V55.5283C31.8685 55.5618 31.09 56.3611 31.09 57.3389V62.1252H20.5958V57.6408ZM51.5418 32.0004C53.0273 32.0004 54.2577 33.1099 54.45 34.5436C52.646 33.8064 50.4802 33.8142 48.6307 34.5674C48.8123 33.1223 50.0481 32.0004 51.5418 32.0004ZM48.3226 36.8524C49.1891 36.2449 50.3998 35.8706 51.6357 35.8706C52.7236 35.8706 53.8311 36.1606 54.7406 36.8371C55.6733 37.5309 57.6857 39.9943 56.6995 43.4929C55.883 42.8953 54.757 41.3401 54.0246 39.9133C53.8821 39.6351 53.6102 39.4466 53.2998 39.4099C52.9896 39.3733 52.6811 39.4942 52.4777 39.7313C51.5431 40.8227 48.7675 43.5239 46.4003 43.9253C45.2777 41.1468 46.682 38.0028 48.3226 36.8524ZM46.9437 45.7267C49.3871 45.2053 51.7582 43.1459 53.0047 41.9052C53.6192 43.0102 55.2355 45.0086 56.224 45.3718C55.5853 48.4296 53.1535 51.2277 51.5417 51.2277C50.0297 51.2277 47.6961 48.6253 46.9437 45.7267ZM51.5418 53.1027C52.076 53.1027 52.6318 52.9637 53.1882 52.6998C53.1883 52.6932 53.1881 53.7131 53.1883 53.7929C53.2226 55.2431 52.6053 56.8691 51.545 57.9859C50.5575 56.9623 49.8772 55.3454 49.8968 53.8344C49.8976 53.7854 49.897 52.8632 49.8971 52.7027C50.4356 52.9582 50.9886 53.1027 51.5418 53.1027ZM48.1253 55.1378C48.3592 56.5609 48.9838 57.8997 49.9426 59.0008L50.6053 59.7621V62.1252H45.3365V57.6408C45.3365 57.2024 45.2732 56.7726 45.1556 56.3616L48.1253 55.1378ZM60.4266 61.8113C60.4266 61.9844 60.2858 62.1252 60.1128 62.1252H52.4802V59.7624L53.1207 59.0333C54.0951 57.9239 54.7275 56.5749 54.9618 55.1386L59.0706 56.8316C59.8943 57.1709 60.4267 57.9659 60.4267 58.8571L60.4266 61.8113Z" fill="#FA541C"/>
<path d="M36.5784 58.3614C36.0606 58.3614 35.6409 58.781 35.6409 59.2989C35.6409 59.8168 36.0606 60.2364 36.5784 60.2364H40.1195C40.6372 60.2364 41.057 59.8168 41.057 59.2989C41.057 58.781 40.6372 58.3614 40.1195 58.3614H36.5784Z" fill="#FA541C"/>
</g>
<defs>
<clipPath id="clip0_18477_10025">
<rect width="64" height="64" fill="white"/>
</clipPath>
</defs>
</svg>
