<svg width="64" height="64" viewBox="0 0 64 64" fill="none" xmlns="http://www.w3.org/2000/svg">
<g clip-path="url(#clip0_18477_10013)">
<path d="M5.048 29.8337H21.7838C22.951 29.8337 23.9005 30.7832 23.9005 31.9505V36.182C23.9005 36.7004 24.3208 37.1206 24.8392 37.1206C25.3575 37.1206 25.7778 36.7004 25.7778 36.182V33.2368L27.2311 30.1772C27.8606 28.8519 28.9511 27.806 30.3016 27.2321L31.4365 26.7498C31.4727 26.7344 31.5077 26.7168 31.5417 26.6971L38.4644 22.6664C38.6391 22.5646 38.7763 22.4092 38.8557 22.2232L40.6941 17.9098C41.0211 17.1428 41.7711 16.6471 42.6142 16.6471C44.0153 16.6471 45.2652 17.4846 45.7981 18.7805C46.0135 19.3044 46.1226 19.8571 46.1226 20.4234V21.6901C46.1226 22.2085 46.5427 22.6287 47.0612 22.6287C47.5797 22.6287 47.9998 22.2085 47.9998 21.6901V20.4234C47.9998 19.6111 47.8433 18.8182 47.5343 18.0666C46.7108 16.0639 44.7795 14.7697 42.605 14.7697C41.0176 14.7697 39.5897 15.7133 38.9672 17.1736L37.2507 21.2006L30.648 25.045L29.5673 25.5041C27.7941 26.2577 26.3621 27.6312 25.5355 29.3715L25.2506 29.971C24.5616 28.7685 23.2661 27.9562 21.7836 27.9562H5.048C4.52963 27.9562 4.10938 28.3764 4.10938 28.8948C4.10938 29.4132 4.52963 29.8337 5.048 29.8337Z" fill="#FA541C"/>
<path d="M59.1867 44.2305C59.1867 43.092 58.7872 41.9985 58.0819 41.132C59.2196 40.1571 59.8904 38.731 59.8904 37.1834C59.8904 34.3111 57.5536 31.9743 54.6814 31.9743H46.0026L46.9948 29.8025C47.5817 28.5174 47.9151 27.1497 47.9856 25.7372C48.0115 25.2195 47.6128 24.7788 47.095 24.7529C46.5754 24.7281 46.1366 25.1259 46.1108 25.6436C46.0521 26.8178 45.7751 27.9546 45.2872 29.0225L44.2418 31.311C43.9869 31.8693 44.0327 32.5108 44.3645 33.0271C44.6963 33.5433 45.2608 33.8516 45.8744 33.8516H54.6813C56.5185 33.8516 58.0131 35.3462 58.0131 37.1834C58.0131 38.4534 57.3062 39.5959 56.1682 40.1649C55.874 40.3119 55.6783 40.6024 55.6524 40.9303C55.6265 41.2583 55.7741 41.5758 56.0415 41.7674C56.8354 42.3361 57.3093 43.2568 57.3093 44.2303C57.3093 45.4728 56.53 46.6083 55.3704 47.0557C55.0669 47.1729 54.8458 47.4385 54.7857 47.7582C54.7257 48.0778 54.8353 48.4057 55.0755 48.6248C55.6456 49.1448 55.9725 49.8851 55.9725 50.6559C55.9725 51.9365 55.0662 53.0651 53.8175 53.3394C53.2766 53.4581 52.8839 53.9473 52.8839 54.51C52.8839 54.9441 53.1218 55.3451 53.5053 55.5567C54.3661 56.0313 54.9115 56.9345 54.9287 57.9139C54.9416 58.6388 54.6633 59.3284 54.1452 59.8559C53.6105 60.4002 52.8657 60.7123 52.1019 60.7123H47.5919C47.0734 60.7123 46.6532 61.1325 46.6532 61.6509C46.6532 62.1693 47.0734 62.5895 47.5919 62.5895H52.1019C53.3661 62.5895 54.599 62.0727 55.4843 61.1715C56.3582 60.2819 56.8275 59.1131 56.8057 57.8808C56.7845 56.6756 56.2889 55.5392 55.459 54.7032C56.8966 53.9026 57.8497 52.3592 57.8497 50.6559C57.8497 49.7842 57.6016 48.936 57.1477 48.2077C58.4014 47.298 59.1867 45.8181 59.1867 44.2305Z" fill="#FA541C"/>
<path d="M43.5919 60.7131H30.0667C29.2168 60.7131 28.3808 60.4848 27.6491 60.0528L25.7778 58.9482V40.1829C25.7778 39.6645 25.3575 39.2443 24.8392 39.2443C24.3208 39.2443 23.9005 39.6645 23.9005 40.1829V60.0061C23.9005 61.1734 22.951 62.1229 21.7838 62.1229H5.048C4.52963 62.1229 4.10938 62.5431 4.10938 63.0615C4.10938 63.5799 4.52963 64.0001 5.048 64.0001H21.7838C23.6262 64.0001 25.1804 62.7458 25.6395 61.0465L26.6949 61.6693C27.7155 62.2718 28.8815 62.5902 30.0667 62.5902H43.5919C44.1104 62.5902 44.5306 62.17 44.5306 61.6516C44.5306 61.1332 44.1104 60.7131 43.5919 60.7131Z" fill="#FA541C"/>
<path d="M36.7042 7.64239C36.7294 7.68243 36.7373 7.73199 36.7257 7.77792L36.3425 9.3105C36.1424 10.1106 36.4228 10.9219 37.0737 11.4283C37.7248 11.9345 38.5803 12.0061 39.3063 11.6151L41.1489 10.6229C41.2006 10.595 41.2628 10.5949 41.3147 10.6229L43.1574 11.6151C43.4683 11.7825 43.8028 11.8652 44.135 11.8652C44.5786 11.8652 45.0179 11.7178 45.3901 11.4283C46.041 10.9221 46.3212 10.1106 46.1212 9.31063L45.738 7.77792C45.7265 7.73199 45.7344 7.68268 45.7595 7.64251L46.907 5.81595C47.3043 5.18382 47.3267 4.38512 46.9655 3.73159C46.6042 3.07805 45.916 2.67219 45.1693 2.67219H44.0115C43.9474 2.67219 43.8886 2.63728 43.8578 2.58096L43.0333 1.06965C42.6736 0.409865 41.9834 0 41.232 0C40.4806 0 39.7902 0.40974 39.4302 1.0694L38.6059 2.58071C38.5752 2.63703 38.5163 2.67194 38.4522 2.67194H37.2943C36.5477 2.67194 35.8593 3.07793 35.4982 3.73134C35.137 4.38474 35.1594 5.18345 35.5566 5.8157L36.7042 7.64239ZM37.1412 4.63955C37.1744 4.5796 37.226 4.54931 37.2944 4.54931H38.4523C39.2037 4.54931 39.894 4.13957 40.254 3.47978L41.0783 1.96848C41.1114 1.90803 41.1631 1.87724 41.232 1.87724C41.3008 1.87724 41.3525 1.90791 41.3856 1.96848L42.2101 3.47991C42.57 4.13957 43.2603 4.54931 44.0117 4.54931H45.1696C45.238 4.54931 45.2895 4.57972 45.3228 4.63967C45.3558 4.69962 45.3542 4.75931 45.3178 4.81726L44.1703 6.64382C43.8745 7.11463 43.7822 7.69395 43.9171 8.23322L44.3003 9.7658C44.3072 9.79308 44.3281 9.8763 44.2381 9.94626C44.1477 10.0163 44.0725 9.97555 44.0477 9.96216L42.2052 8.9701C41.5959 8.64196 40.8685 8.64183 40.2592 8.9701L38.4166 9.96228C38.3919 9.97555 38.3164 10.0163 38.2263 9.94639C38.1363 9.87643 38.1572 9.79321 38.1641 9.76592L38.5473 8.23309C38.682 7.6937 38.5897 7.1145 38.2941 6.64394L37.1466 4.81738C37.1098 4.75919 37.1081 4.69949 37.1412 4.63955Z" fill="#FA541C"/>
<path d="M50.654 6.46871C50.654 6.98708 51.0741 7.40733 51.5926 7.40733H53.0081C53.5266 7.40733 53.9467 6.98708 53.9467 6.46871C53.9467 5.95034 53.5266 5.53009 53.0081 5.53009H51.5926C51.0741 5.53009 50.654 5.95034 50.654 6.46871Z" fill="#FA541C"/>
<path d="M50.1552 3.1525C50.375 3.1525 50.5957 3.07579 50.7738 2.91947L51.8377 1.98611C52.2273 1.6442 52.2661 1.05124 51.9242 0.661525C51.5823 0.271809 50.9892 0.233138 50.5996 0.575047L49.5357 1.50841C49.1461 1.85032 49.1073 2.44328 49.4492 2.833C49.6348 3.0445 49.8944 3.1525 50.1552 3.1525Z" fill="#FA541C"/>
<path d="M49.5358 11.4282L50.5997 12.3616C50.7779 12.5179 50.9986 12.5946 51.2183 12.5946C51.4791 12.5946 51.7387 12.4865 51.9243 12.275C52.266 11.8853 52.2274 11.2923 51.8378 10.9504L50.7739 10.017C50.3843 9.67524 49.7911 9.71391 49.4493 10.1035C49.1075 10.4931 49.1462 11.0863 49.5358 11.4282Z" fill="#FA541C"/>
<path d="M29.066 7.40733H30.4813C30.9996 7.40733 31.4199 6.98708 31.4199 6.46871C31.4199 5.95034 30.9996 5.53009 30.4813 5.53009H29.066C28.5476 5.53009 28.1273 5.95034 28.1273 6.46871C28.1273 6.98708 28.5476 7.40733 29.066 7.40733Z" fill="#FA541C"/>
<path d="M30.2361 1.98624L31.3 2.9196C31.4782 3.07592 31.6988 3.15263 31.9186 3.15263C32.1794 3.15263 32.439 3.0445 32.6244 2.833C32.9663 2.44328 32.9277 1.85033 32.5381 1.50842L31.4742 0.575052C31.0846 0.233393 30.4915 0.271939 30.1496 0.66153C29.8077 1.05125 29.8464 1.64433 30.2361 1.98624Z" fill="#FA541C"/>
<path d="M31.3 10.0178L30.2361 10.9513C29.8464 11.2932 29.8077 11.8862 30.1496 12.2759C30.3352 12.4874 30.5946 12.5955 30.8556 12.5955C31.0753 12.5955 31.2961 12.5188 31.4742 12.3625L32.5381 11.4291C32.9277 11.0872 32.9665 10.4943 32.6244 10.1046C32.2827 9.71472 31.6896 9.67592 31.3 10.0178Z" fill="#FA541C"/>
</g>
<defs>
<clipPath id="clip0_18477_10013">
<rect width="64" height="64" fill="white"/>
</clipPath>
</defs>
</svg>
