<svg width="80" height="80" viewBox="0 0 80 80" fill="none" xmlns="http://www.w3.org/2000/svg">
<g clip-path="url(#clip0_19035_9957)">
<path d="M32.0006 51.9998L9.33398 36.2264L1.33398 30.6665V73.3332C1.33398 76.2785 3.72201 78.6665 6.66732 78.6665L26.9342 57.3332L32.0006 51.9998Z" fill="#FA541C" fill-opacity="0.48"/>
<path d="M48 51.9998L53.0664 57.3332L73.3333 78.6665C76.2787 78.6665 78.6667 76.2785 78.6667 73.3332V30.6665L70.6667 36.2264L48 51.9998Z" fill="#FA541C" fill-opacity="0.48"/>
<path d="M9.33398 25.3335H6.66732C3.72201 25.3335 1.33398 27.7215 1.33398 30.6668L9.33398 36.2267V25.3335Z" fill="#FA541C" fill-opacity="0.48"/>
<path d="M73.3327 25.3335H70.666V36.2267L78.666 30.6668C78.666 27.7215 76.278 25.3335 73.3327 25.3335Z" fill="#FA541C" fill-opacity="0.48"/>
<path d="M47.9994 52H31.9994L26.9329 57.3333L6.66602 78.6667H73.3327L53.0658 57.3333L47.9994 52Z" fill="#FA541C" fill-opacity="0.48"/>
<path d="M62.6667 12.0002H70.6667L60 1.3335V9.3335C60.0046 10.8042 61.196 11.9956 62.6667 12.0002Z" fill="#FA541C" fill-opacity="0.48"/>
<path d="M73.3333 24H72V12C72 11.9707 71.985 11.9466 71.9837 11.9173C71.9759 11.7975 71.9518 11.679 71.9121 11.5651C71.8971 11.5228 71.8867 11.4811 71.8678 11.4401C71.8053 11.2995 71.7181 11.1706 71.6107 11.0599L60.944 0.393229C60.8327 0.285807 60.7031 0.198568 60.5612 0.136068C60.5228 0.117188 60.4811 0.106771 60.4414 0.0917968C60.3249 0.0507813 60.2031 0.0266927 60.0801 0.0201823C60.0508 0.014974 60.028 0 60 0H13.3333C10.388 0 8 2.38802 8 5.33333V24H6.66667C2.98633 24.0046 0.0045573 26.9863 0 30.6667V73.3333C0.0045573 77.0137 2.98633 79.9954 6.66667 80H73.3333C77.0137 79.9954 79.9954 77.0137 80 73.3333V30.6667C79.9954 26.9863 77.0137 24.0046 73.3333 24ZM32.5736 53.3333H47.4264L70.2266 77.3333H9.77344L32.5736 53.3333ZM73.3333 26.6667C75.2858 26.666 76.9531 28.0749 77.2786 30L72 33.6758V26.6667H73.3333ZM67.4479 10.6667H62.6667C61.9303 10.6667 61.3333 10.0697 61.3333 9.33333V4.55208L67.4479 10.6667ZM10.6667 5.33333C10.6667 3.86068 11.8607 2.66667 13.3333 2.66667H58.6667V9.33333C58.6667 11.5423 60.4577 13.3333 62.6667 13.3333H69.3333V35.5293L47.5814 50.6667H32.4186L10.6667 35.5293V5.33333ZM6.66667 26.6667H8V33.6758L2.72135 30.0065C3.04362 28.0788 4.71224 26.6667 6.66667 26.6667ZM2.66667 73.3333V33.2174L29.9642 52.2077L6.13346 77.2975C4.14844 77.0306 2.66667 75.3359 2.66667 73.3333ZM73.8665 77.2975L50.0358 52.2077L77.3333 33.2174V73.3333C77.3333 75.3359 75.8516 77.0306 73.8665 77.2975Z" fill="#FA541C"/>
<path d="M27.9993 10.6667H51.9993C52.7357 10.6667 53.3327 10.0697 53.3327 9.33333C53.3327 8.59701 52.7357 8 51.9993 8H27.9993C27.263 8 26.666 8.59701 26.666 9.33333C26.666 10.0697 27.263 10.6667 27.9993 10.6667Z" fill="#FA541C"/>
<path d="M16 17.3333C16 18.0697 16.597 18.6667 17.3333 18.6667H62.6667C63.403 18.6667 64 18.0697 64 17.3333C64 16.597 63.403 16 62.6667 16H17.3333C16.597 16 16 16.597 16 17.3333Z" fill="#FA541C"/>
<path d="M62.6667 24H17.3333C16.597 24 16 24.597 16 25.3333C16 26.0697 16.597 26.6667 17.3333 26.6667H62.6667C63.403 26.6667 64 26.0697 64 25.3333C64 24.597 63.403 24 62.6667 24Z" fill="#FA541C"/>
<path d="M62.6667 32H17.3333C16.597 32 16 32.597 16 33.3333C16 34.0697 16.597 34.6667 17.3333 34.6667H62.6667C63.403 34.6667 64 34.0697 64 33.3333C64 32.597 63.403 32 62.6667 32Z" fill="#FA541C"/>
<path d="M54.6667 40H25.3333C24.597 40 24 40.597 24 41.3333C24 42.0697 24.597 42.6667 25.3333 42.6667H54.6667C55.403 42.6667 56 42.0697 56 41.3333C56 40.597 55.403 40 54.6667 40Z" fill="#FA541C"/>
<path d="M14.6673 13.3335C15.4036 13.3335 16.0007 12.7365 16.0007 12.0002V9.3335C16.0007 8.59717 16.5977 8.00016 17.334 8.00016H20.0007C20.737 8.00016 21.334 7.40316 21.334 6.66683C21.334 5.9305 20.737 5.3335 20.0007 5.3335H17.334C15.125 5.3335 13.334 7.12451 13.334 9.3335V12.0002C13.334 12.7365 13.931 13.3335 14.6673 13.3335Z" fill="#FA541C"/>
</g>
<defs>
<clipPath id="clip0_19035_9957">
<rect width="80" height="80" fill="white"/>
</clipPath>
</defs>
</svg>
