<svg width="18" height="18" viewBox="0 0 18 18" fill="none" xmlns="http://www.w3.org/2000/svg">
<path d="M17.1256 16.2411L12.4056 11.521C13.5398 10.1594 14.1054 8.41288 13.9847 6.64485C13.864 4.87682 13.0663 3.22339 11.7576 2.02851C10.4488 0.833631 8.72983 0.189302 6.95814 0.229562C5.18646 0.269822 3.49849 0.991571 2.2454 2.24467C0.992304 3.49776 0.270555 5.18572 0.230295 6.95741C0.190035 8.7291 0.834364 10.4481 2.02924 11.7568C3.22412 13.0655 4.87756 13.8632 6.64559 13.9839C8.41361 14.1046 10.1601 13.539 11.5218 12.4048L16.2418 17.1249L17.1256 16.2411ZM1.50064 7.1249C1.50064 6.01238 1.83054 4.92485 2.44862 3.99982C3.0667 3.0748 3.94521 2.35382 4.97304 1.92808C6.00088 1.50234 7.13188 1.39094 8.22302 1.60799C9.31416 1.82503 10.3164 2.36076 11.1031 3.14743C11.8898 3.9341 12.4255 4.93638 12.6426 6.02752C12.8596 7.11866 12.7482 8.24966 12.3225 9.2775C11.8967 10.3053 11.1757 11.1838 10.2507 11.8019C9.32569 12.42 8.23816 12.7499 7.12564 12.7499C5.6343 12.7483 4.20452 12.1551 3.14999 11.1006C2.09545 10.046 1.50229 8.61624 1.50064 7.1249Z" fill="#212B36"/>
</svg>
