<svg width="65" height="62" viewBox="0 0 65 62" fill="none" xmlns="http://www.w3.org/2000/svg">
<path d="M5.49468 55.7525H32.3335V53.6876H5.49468C3.78446 53.6876 2.39792 52.301 2.39792 50.5908V5.17144C2.39792 3.4607 3.78446 2.07468 5.49468 2.07468H50.9141C52.6251 2.07468 54.0108 3.4607 54.0108 5.17144V28.9132H56.0758V5.17144C56.0724 2.32228 53.7635 0.0136174 50.9141 0.0102539H5.49468C2.64604 0.0136174 0.337118 2.32228 0.333496 5.17144V50.5908C0.337118 53.44 2.64604 55.7486 5.49468 55.7525Z" fill="#FA541C"/>
<path d="M4.46282 4.13909H6.52698V6.20325H4.46282V4.13909Z" fill="#FA541C"/>
<path d="M8.59136 4.13909H10.6563V6.20325H8.59136V4.13909Z" fill="#FA541C"/>
<path d="M12.7207 4.13909H14.7853V6.20325H12.7207V4.13909Z" fill="#FA541C"/>
<path d="M4.46282 8.269H51.9464V10.3339H4.46282V8.269Z" fill="#FA541C"/>
<path d="M15.0876 12.699L12.4656 15.3209C10.2493 13.8537 7.2814 14.3039 5.59939 16.3623C3.91763 18.4206 4.06847 21.4187 5.9479 23.2979C7.82707 25.1778 10.8255 25.3287 12.884 23.6467C14.9422 21.9649 15.3926 18.9965 13.9251 16.7807L16.5468 14.1587L15.0876 12.699ZM9.62344 22.7189C7.91348 22.7189 6.52694 21.3326 6.52694 19.6224C6.52694 17.9119 7.91348 16.5259 9.62344 16.5259C10.084 16.5274 10.537 16.633 10.9502 16.835L8.89408 18.8914L10.3533 20.3512L12.411 18.2961C12.6131 18.709 12.7189 19.1621 12.7205 19.6224C12.7205 21.3326 11.3344 22.7189 9.62344 22.7189Z" fill="#FA541C"/>
<path d="M17.8819 16.5265H35.4299V18.5906H17.8819V16.5265Z" fill="#FA541C"/>
<path d="M17.8819 20.6548H25.1075V22.719H17.8819V20.6548Z" fill="#FA541C"/>
<path d="M27.1722 20.6548H41.6234V22.719H27.1722V20.6548Z" fill="#FA541C"/>
<path d="M37.4947 16.5265H47.8174V18.5906H37.4947V16.5265Z" fill="#FA541C"/>
<path d="M15.0876 25.0863L12.4656 27.7083C10.2493 26.2411 7.2814 26.6913 5.59939 28.7497C3.91763 30.8082 4.06847 33.8061 5.9479 35.6858C7.82707 37.5652 10.8255 37.7161 12.884 36.0341C14.9422 34.3521 15.3926 31.3847 13.9251 29.1681L16.5468 26.5461L15.0876 25.0863ZM9.62344 35.1065C7.91348 35.1065 6.52694 33.72 6.52694 32.0098C6.52694 30.2993 7.91348 28.9127 9.62344 28.9127C10.084 28.9145 10.537 29.0204 10.9502 29.2224L8.89408 31.2794L10.3533 32.7386L12.411 30.6832C12.6131 31.0964 12.7189 31.5495 12.7205 32.0098C12.7205 33.72 11.3344 35.1065 9.62344 35.1065Z" fill="#FA541C"/>
<path d="M17.8819 28.9133H35.4299V30.978H17.8819V28.9133Z" fill="#FA541C"/>
<path d="M17.8819 33.0422H25.1075V35.1067H17.8819V33.0422Z" fill="#FA541C"/>
<path d="M27.1722 33.0422H35.43V35.1067H27.1722V33.0422Z" fill="#FA541C"/>
<path d="M37.4947 28.9133H41.6236V30.978H37.4947V28.9133Z" fill="#FA541C"/>
<path d="M15.0876 37.4737L12.4656 40.0957C10.2493 38.6284 7.2814 39.0786 5.59939 41.1371C3.91763 43.1956 4.06847 46.1935 5.9479 48.0732C7.82707 49.9529 10.8255 50.1032 12.884 48.4215C14.9422 46.7395 15.3926 43.7718 13.9251 41.5552L16.5468 38.9335L15.0876 37.4737ZM9.62344 47.4939C7.91348 47.4939 6.52694 46.1074 6.52694 44.3971C6.52694 42.6867 7.91348 41.3004 9.62344 41.3004C10.084 41.3019 10.537 41.4075 10.9502 41.6098L8.89408 43.6667L10.3533 45.126L12.411 43.0706C12.6131 43.4838 12.7189 43.9371 12.7205 44.3971C12.7205 46.1074 11.3344 47.4939 9.62344 47.4939Z" fill="#FA541C"/>
<path d="M17.8819 41.301H31.3011V43.366H17.8819V41.301Z" fill="#FA541C"/>
<path d="M17.8819 45.4296H25.1075V47.494H17.8819V45.4296Z" fill="#FA541C"/>
<path d="M27.1722 45.4296H31.3011V47.494H27.1722V45.4296Z" fill="#FA541C"/>
<path d="M48.85 61.946C57.4019 61.946 64.3335 55.013 64.3335 46.4619C64.3335 37.91 57.4019 30.9778 48.85 30.9778C40.2981 30.9778 33.3659 37.91 33.3659 46.4619C33.376 55.0091 40.3023 61.9356 48.85 61.946ZM48.85 33.0425C56.2609 33.0425 62.2694 39.0505 62.2694 46.4619C62.2694 53.8733 56.2609 59.881 48.85 59.881C41.4384 59.881 35.4301 53.8733 35.4301 46.4619C35.4389 39.0541 41.4417 33.0507 48.85 33.0425Z" fill="#FA541C"/>
<path d="M42.5531 47.0322L40.7052 47.9548L42.7699 52.0839C42.9179 52.381 43.2004 52.5887 43.5282 52.6418C43.5815 52.65 43.6348 52.6544 43.6884 52.6552C43.9619 52.6552 44.2245 52.5463 44.4185 52.3527L56.8051 39.9657L55.3458 38.5059L43.9709 49.8803L42.5531 47.0322Z" fill="#FA541C"/>
</svg>
